<svg xmlns="http://www.w3.org/2000/svg" xmlns:xlink="http://www.w3.org/1999/xlink" width="500" zoomAndPan="magnify" viewBox="0 0 375 374.999991" height="500" preserveAspectRatio="xMidYMid meet" version="1.0"><path fill="#000000" d="M 153.808594 27.246094 C 136.523438 37.351562 103.5625 56.542969 80.566406 69.871094 C 57.570312 83.203125 37.648438 95.066406 36.328125 96.386719 C 33.839844 98.4375 33.691406 104.734375 33.691406 187.5 C 33.691406 270.261719 33.839844 276.5625 36.328125 278.613281 C 37.648438 279.929688 47.316406 285.789062 57.863281 291.941406 C 86.71875 308.496094 138.71875 338.671875 163.476562 353.171875 C 175.632812 360.351562 186.472656 366.210938 187.5 366.210938 C 189.257812 366.210938 212.253906 353.171875 257.078125 326.660156 C 267.625 320.507812 290.769531 306.882812 308.789062 296.484375 L 341.308594 277.585938 L 341.308594 188.085938 C 341.308594 104.734375 341.160156 98.4375 338.816406 96.386719 C 333.542969 91.84375 189.84375 8.789062 187.351562 8.789062 C 186.179688 8.789062 171.09375 17.140625 153.808594 27.246094 Z M 257.519531 61.230469 L 325.339844 100.78125 L 314.648438 107.078125 C 308.789062 110.449219 298.679688 116.308594 292.234375 120.117188 C 285.789062 123.925781 261.472656 138.132812 238.035156 151.609375 C 214.746094 165.085938 194.089844 177.097656 192.1875 178.269531 C 190.28125 179.441406 187.9375 180.175781 186.914062 179.882812 C 183.835938 179.148438 51.417969 101.953125 51.269531 100.78125 C 51.269531 100.339844 60.351562 94.628906 71.484375 88.183594 C 82.46875 81.738281 112.9375 63.867188 139.160156 48.632812 C 165.378906 33.25 187.5 20.949219 188.230469 21.242188 C 189.109375 21.386719 220.164062 39.402344 257.519531 61.230469 Z M 94.042969 139.304688 C 119.238281 153.953125 149.121094 171.386719 160.398438 177.976562 L 180.90625 189.988281 L 181.347656 269.96875 C 181.492188 314.0625 181.347656 350.097656 180.90625 350.097656 C 180.175781 350.097656 62.84375 281.980469 54.640625 276.707031 C 52.734375 275.683594 51.269531 274.363281 51.269531 273.925781 C 51.269531 273.484375 61.964844 267.039062 75.144531 259.421875 C 139.011719 222.363281 137.988281 223.09375 132.421875 217.675781 C 129.636719 214.746094 129.492188 214.746094 83.203125 241.992188 C 64.015625 253.125 47.316406 262.644531 46.144531 263.085938 C 44.238281 263.816406 43.945312 255.027344 43.945312 187.5 C 43.945312 121.289062 44.238281 111.179688 45.996094 111.765625 C 47.167969 112.207031 68.847656 124.65625 94.042969 139.304688 Z M 331.054688 187.644531 C 331.054688 251.804688 330.761719 263.816406 329.003906 263.230469 C 327.976562 262.792969 317.285156 256.640625 305.273438 249.609375 C 293.261719 242.578125 273.632812 231.152344 261.472656 224.121094 C 249.460938 217.234375 230.417969 206.25 219.433594 199.804688 C 208.300781 193.503906 199.21875 187.9375 199.21875 187.5 C 199.21875 187.058594 210.9375 180.027344 225.292969 171.824219 C 239.5 163.476562 268.652344 146.628906 290.039062 134.179688 C 311.425781 221.582031 329.296875 111.472656 330.027344 111.328125 C 330.613281 111.328125 331.054688 145.605469 331.054688 187.644531 Z M 331.054688 187.644531 " fill-opacity="1" fill-rule="nonzero"/></svg>