<svg xmlns="http://www.w3.org/2000/svg" xmlns:xlink="http://www.w3.org/1999/xlink" width="500" zoomAndPan="magnify" viewBox="0 0 375 374.999991" height="500" preserveAspectRatio="xMidYMid meet" version="1.0"><defs><g/></defs><g fill="#000000" fill-opacity="1"><g transform="translate(127.154792, 200.999987)"><g><path d="M 14.15625 -9.6875 L 14.15625 0 L 11.234375 0 L 11.234375 -9.6875 L 0.046875 -28 L 3.203125 -28 L 12.796875 -12.28125 L 22.40625 -28 L 25.359375 -28 Z M 14.15625 -9.6875 "/></g></g></g><g fill="#000000" fill-opacity="1"><g transform="translate(151.352338, 200.999987)"><g><path d="M 16.796875 0.234375 C 14.023438 0.234375 11.507812 -0.382812 9.25 -1.625 C 7 -2.863281 5.238281 -4.5625 3.96875 -6.71875 C 2.707031 -8.875 2.078125 -11.300781 2.078125 -14 C 2.078125 -16.695312 2.707031 -19.125 3.96875 -21.28125 C 5.238281 -23.4375 7 -25.132812 9.25 -26.375 C 11.507812 -27.613281 14.023438 -28.234375 16.796875 -28.234375 C 19.566406 -28.234375 22.066406 -27.617188 24.296875 -26.390625 C 26.523438 -25.171875 28.28125 -23.472656 29.5625 -21.296875 C 30.84375 -19.128906 31.484375 -16.695312 31.484375 -14 C 31.484375 -11.300781 30.84375 -8.863281 29.5625 -6.6875 C 28.28125 -4.519531 26.523438 -2.820312 24.296875 -1.59375 C 22.066406 -0.375 19.566406 0.234375 16.796875 0.234375 Z M 16.796875 -2.40625 C 19.015625 -2.40625 21.015625 -2.90625 22.796875 -3.90625 C 24.585938 -4.90625 25.988281 -6.289062 27 -8.0625 C 28.007812 -9.832031 28.515625 -11.8125 28.515625 -14 C 28.515625 -16.1875 28.007812 -18.164062 27 -19.9375 C 25.988281 -21.707031 24.585938 -23.09375 22.796875 -24.09375 C 21.015625 -25.09375 19.015625 -25.59375 16.796875 -25.59375 C 14.585938 -25.59375 12.582031 -25.09375 10.78125 -24.09375 C 8.976562 -23.09375 7.5625 -21.707031 6.53125 -19.9375 C 5.507812 -18.164062 5 -16.1875 5 -14 C 5 -11.8125 5.507812 -9.832031 6.53125 -8.0625 C 7.5625 -6.289062 8.976562 -4.90625 10.78125 -3.90625 C 12.582031 -2.90625 14.585938 -2.40625 16.796875 -2.40625 Z M 16.796875 -2.40625 "/></g></g></g><g fill="#000000" fill-opacity="1"><g transform="translate(184.909, 200.999987)"><g><path d="M 12.28125 0.234375 C 10.195312 0.234375 8.203125 -0.0976562 6.296875 -0.765625 C 4.390625 -1.429688 2.914062 -2.3125 1.875 -3.40625 L 3.046875 -5.6875 C 4.054688 -4.664062 5.398438 -3.84375 7.078125 -3.21875 C 8.753906 -2.59375 10.488281 -2.28125 12.28125 -2.28125 C 14.789062 -2.28125 16.671875 -2.738281 17.921875 -3.65625 C 19.171875 -4.582031 19.796875 -5.773438 19.796875 -7.234375 C 19.796875 -8.359375 19.457031 -9.253906 18.78125 -9.921875 C 18.101562 -10.585938 17.269531 -11.097656 16.28125 -11.453125 C 15.289062 -11.816406 13.914062 -12.210938 12.15625 -12.640625 C 10.050781 -13.171875 8.367188 -13.679688 7.109375 -14.171875 C 5.859375 -14.671875 4.785156 -15.425781 3.890625 -16.4375 C 3.003906 -17.445312 2.5625 -18.820312 2.5625 -20.5625 C 2.5625 -21.976562 2.929688 -23.265625 3.671875 -24.421875 C 4.421875 -25.578125 5.566406 -26.5 7.109375 -27.1875 C 8.660156 -27.882812 10.582031 -28.234375 12.875 -28.234375 C 14.476562 -28.234375 16.046875 -28.015625 17.578125 -27.578125 C 19.109375 -27.140625 20.4375 -26.535156 21.5625 -25.765625 L 20.5625 -23.40625 C 19.382812 -24.175781 18.128906 -24.753906 16.796875 -25.140625 C 15.460938 -25.523438 14.15625 -25.71875 12.875 -25.71875 C 10.425781 -25.71875 8.582031 -25.242188 7.34375 -24.296875 C 6.101562 -23.347656 5.484375 -22.128906 5.484375 -20.640625 C 5.484375 -19.515625 5.820312 -18.613281 6.5 -17.9375 C 7.175781 -17.257812 8.023438 -16.738281 9.046875 -16.375 C 10.078125 -16.019531 11.460938 -15.628906 13.203125 -15.203125 C 15.253906 -14.691406 16.910156 -14.1875 18.171875 -13.6875 C 19.441406 -13.195312 20.515625 -12.453125 21.390625 -11.453125 C 22.273438 -10.453125 22.71875 -9.101562 22.71875 -7.40625 C 22.71875 -5.988281 22.335938 -4.695312 21.578125 -3.53125 C 20.816406 -2.375 19.648438 -1.457031 18.078125 -0.78125 C 16.503906 -0.101562 14.570312 0.234375 12.28125 0.234375 Z M 12.28125 0.234375 "/></g></g></g><g fill="#000000" fill-opacity="1"><g transform="translate(209.506551, 200.999987)"><g><path d="M 16.796875 0.234375 C 14.023438 0.234375 11.507812 -0.382812 9.25 -1.625 C 7 -2.863281 5.238281 -4.5625 3.96875 -6.71875 C 2.707031 -8.875 2.078125 -11.300781 2.078125 -14 C 2.078125 -16.695312 2.707031 -19.125 3.96875 -21.28125 C 5.238281 -23.4375 7 -25.132812 9.25 -26.375 C 11.507812 -27.613281 14.023438 -28.234375 16.796875 -28.234375 C 19.566406 -28.234375 22.066406 -27.617188 24.296875 -26.390625 C 26.523438 -25.171875 28.28125 -23.472656 29.5625 -21.296875 C 30.84375 -19.128906 31.484375 -16.695312 31.484375 -14 C 31.484375 -11.300781 30.84375 -8.863281 29.5625 -6.6875 C 28.28125 -4.519531 26.523438 -2.820312 24.296875 -1.59375 C 22.066406 -0.375 19.566406 0.234375 16.796875 0.234375 Z M 16.796875 -2.40625 C 19.015625 -2.40625 21.015625 -2.90625 22.796875 -3.90625 C 24.585938 -4.90625 25.988281 -6.289062 27 -8.0625 C 28.007812 -9.832031 28.515625 -11.8125 28.515625 -14 C 28.515625 -16.1875 28.007812 -18.164062 27 -19.9375 C 25.988281 -21.707031 24.585938 -23.09375 22.796875 -24.09375 C 21.015625 -25.09375 19.015625 -25.59375 16.796875 -25.59375 C 14.585938 -25.59375 12.582031 -25.09375 10.78125 -24.09375 C 8.976562 -23.09375 7.5625 -21.707031 6.53125 -19.9375 C 5.507812 -18.164062 5 -16.1875 5 -14 C 5 -11.8125 5.507812 -9.832031 6.53125 -8.0625 C 7.5625 -6.289062 8.976562 -4.90625 10.78125 -3.90625 C 12.582031 -2.90625 14.585938 -2.40625 16.796875 -2.40625 Z M 16.796875 -2.40625 "/></g></g></g><g fill="#000000" fill-opacity="1"><g transform="translate(253.553221, 200.999987)"><g><path d="M 3.3125 -28 L 9.796875 -28 L 9.796875 -5.28125 L 23.84375 -5.28125 L 23.84375 0 L 3.3125 0 Z M 3.3125 -28 "/></g></g></g><g fill="#000000" fill-opacity="1"><g transform="translate(277.950799, 200.999987)"><g><path d="M 21.765625 -6 L 8.765625 -6 L 6.28125 0 L -0.359375 0 L 12.125 -28 L 18.515625 -28 L 31.046875 0 L 24.234375 0 Z M 19.71875 -10.921875 L 15.28125 -21.640625 L 10.84375 -10.921875 Z M 19.71875 -10.921875 "/></g></g></g><g fill="#000000" fill-opacity="1"><g transform="translate(308.587753, 200.999987)"><g><path d="M 23.875 -14.5625 C 25.476562 -14.050781 26.734375 -13.203125 27.640625 -12.015625 C 28.546875 -10.828125 29 -9.367188 29 -7.640625 C 29 -5.179688 28.046875 -3.289062 26.140625 -1.96875 C 24.234375 -0.65625 21.453125 0 17.796875 0 L 3.3125 0 L 3.3125 -28 L 17 -28 C 20.414062 -28 23.035156 -27.34375 24.859375 -26.03125 C 26.679688 -24.726562 27.59375 -22.957031 27.59375 -20.71875 C 27.59375 -19.363281 27.265625 -18.148438 26.609375 -17.078125 C 25.960938 -16.015625 25.050781 -15.175781 23.875 -14.5625 Z M 9.765625 -23.125 L 9.765625 -16.515625 L 16.203125 -16.515625 C 17.796875 -16.515625 19.003906 -16.796875 19.828125 -17.359375 C 20.660156 -17.921875 21.078125 -18.75 21.078125 -19.84375 C 21.078125 -20.9375 20.660156 -21.753906 19.828125 -22.296875 C 19.003906 -22.847656 17.796875 -23.125 16.203125 -23.125 Z M 17.3125 -4.875 C 19.019531 -4.875 20.304688 -5.15625 21.171875 -5.71875 C 22.046875 -6.28125 22.484375 -7.144531 22.484375 -8.3125 C 22.484375 -10.632812 20.757812 -11.796875 17.3125 -11.796875 L 9.765625 -11.796875 L 9.765625 -4.875 Z M 17.3125 -4.875 "/></g></g></g><g fill="#000000" fill-opacity="1"><g transform="translate(339.184709, 200.999987)"><g><path d="M 12.515625 0.484375 C 10.304688 0.484375 8.164062 0.1875 6.09375 -0.40625 C 4.03125 -1.007812 2.375 -1.796875 1.125 -2.765625 L 3.3125 -7.640625 C 4.519531 -6.753906 5.945312 -6.046875 7.59375 -5.515625 C 9.25 -4.984375 10.90625 -4.71875 12.5625 -4.71875 C 14.394531 -4.71875 15.75 -4.988281 16.625 -5.53125 C 17.507812 -6.082031 17.953125 -6.8125 17.953125 -7.71875 C 17.953125 -8.382812 17.691406 -8.9375 17.171875 -9.375 C 16.660156 -9.820312 15.992188 -10.175781 15.171875 -10.4375 C 14.359375 -10.707031 13.257812 -11 11.875 -11.3125 C 9.75 -11.820312 8.003906 -12.328125 6.640625 -12.828125 C 5.273438 -13.335938 4.109375 -14.148438 3.140625 -15.265625 C 2.171875 -16.390625 1.6875 -17.890625 1.6875 -19.765625 C 1.6875 -21.390625 2.125 -22.859375 3 -24.171875 C 3.875 -25.492188 5.195312 -26.539062 6.96875 -27.3125 C 8.75 -28.09375 10.921875 -28.484375 13.484375 -28.484375 C 15.265625 -28.484375 17.007812 -28.269531 18.71875 -27.84375 C 20.425781 -27.414062 21.921875 -26.800781 23.203125 -26 L 21.203125 -21.078125 C 18.609375 -22.546875 16.019531 -23.28125 13.4375 -23.28125 C 11.625 -23.28125 10.285156 -22.984375 9.421875 -22.390625 C 8.554688 -21.804688 8.125 -21.035156 8.125 -20.078125 C 8.125 -19.117188 8.625 -18.40625 9.625 -17.9375 C 10.625 -17.46875 12.148438 -17.007812 14.203125 -16.5625 C 16.335938 -16.050781 18.082031 -15.539062 19.4375 -15.03125 C 20.800781 -14.53125 21.96875 -13.734375 22.9375 -12.640625 C 23.914062 -11.546875 24.40625 -10.066406 24.40625 -8.203125 C 24.40625 -6.597656 23.957031 -5.132812 23.0625 -3.8125 C 22.164062 -2.5 20.820312 -1.453125 19.03125 -0.671875 C 17.25 0.0976562 15.078125 0.484375 12.515625 0.484375 Z M 12.515625 0.484375 "/></g></g></g><path fill="#000000" d="M 47.679688 137.6875 C 42.324219 140.824219 32.105469 146.769531 24.976562 150.902344 C 17.847656 155.035156 11.671875 158.714844 11.261719 159.121094 C 10.488281 159.757812 10.445312 161.710938 10.445312 187.367188 C 10.445312 213.023438 10.488281 214.976562 11.261719 215.613281 C 11.671875 216.023438 14.667969 217.839844 17.9375 219.746094 C 26.882812 224.875 43.003906 234.230469 50.679688 238.726562 C 54.445312 240.953125 57.808594 242.769531 58.125 242.769531 C 58.667969 242.769531 65.800781 238.726562 79.695312 230.507812 C 82.964844 228.601562 90.140625 224.378906 95.722656 221.152344 L 105.804688 215.296875 L 105.804688 187.550781 C 105.804688 161.710938 105.761719 159.757812 105.035156 159.121094 C 103.398438 157.714844 58.851562 131.96875 58.078125 131.96875 C 57.714844 131.96875 53.039062 134.554688 47.679688 137.6875 Z M 79.832031 148.222656 L 100.855469 160.484375 L 97.539062 162.4375 C 95.722656 163.480469 92.589844 165.296875 90.59375 166.480469 C 88.59375 167.660156 81.058594 172.066406 73.792969 176.242188 C 66.570312 180.421875 60.167969 184.144531 59.578125 184.507812 C 58.988281 184.871094 58.261719 185.097656 57.941406 185.007812 C 56.988281 184.78125 15.9375 160.847656 15.894531 160.484375 C 15.894531 160.347656 18.710938 158.578125 22.160156 156.578125 C 25.566406 154.582031 35.011719 149.042969 43.140625 144.320312 C 51.269531 139.550781 58.125 135.738281 58.351562 135.828125 C 58.625 135.871094 68.25 141.457031 79.832031 148.222656 Z M 29.152344 172.429688 C 36.964844 176.96875 46.226562 182.371094 49.722656 184.417969 L 56.082031 188.140625 L 56.21875 212.933594 C 56.261719 226.601562 56.21875 237.773438 56.082031 237.773438 C 55.855469 237.773438 19.480469 216.65625 16.9375 215.023438 C 16.347656 214.703125 15.894531 214.296875 15.894531 214.160156 C 15.894531 214.023438 19.207031 212.027344 23.296875 209.664062 C 43.09375 198.175781 42.777344 198.402344 41.050781 196.722656 C 40.1875 195.8125 40.144531 195.8125 25.792969 204.261719 C 19.84375 207.710938 14.667969 210.664062 14.304688 210.800781 C 13.714844 211.027344 13.625 208.300781 13.625 187.367188 C 13.625 166.84375 13.714844 163.710938 14.257812 163.890625 C 14.621094 164.027344 21.34375 167.886719 29.152344 172.429688 Z M 102.625 187.414062 C 102.625 207.304688 102.535156 211.027344 101.992188 210.84375 C 101.671875 210.707031 98.359375 208.800781 94.632812 206.621094 C 90.910156 204.441406 84.824219 200.898438 81.058594 198.71875 C 77.332031 196.585938 71.429688 193.179688 68.023438 191.183594 C 64.574219 189.230469 61.757812 187.503906 61.757812 187.367188 C 61.757812 187.230469 65.390625 185.050781 69.839844 182.507812 C 74.246094 179.921875 83.28125 174.699219 89.910156 170.839844 C 96.542969 166.933594 102.082031 163.800781 102.308594 163.753906 C 102.492188 163.753906 102.625 174.378906 102.625 187.414062 Z M 102.625 187.414062 " fill-opacity="1" fill-rule="nonzero"/></svg>