<svg xmlns="http://www.w3.org/2000/svg" xmlns:xlink="http://www.w3.org/1999/xlink" width="500" zoomAndPan="magnify" viewBox="0 0 375 374.999991" height="500" preserveAspectRatio="xMidYMid meet" version="1.0"><defs><g/><clipPath id="2267ab9a20"><rect x="0" width="375" y="0" height="78"/></clipPath></defs><g transform="matrix(1, 0, 0, 1, 0, 240)"><g clip-path="url(#2267ab9a20)"><g fill="#000000" fill-opacity="1"><g transform="translate(0.0000045, 60.776275)"><g><path d="M 22.359375 -15.28125 L 22.359375 0 L 17.75 0 L 17.75 -15.28125 L 0.0625 -44.203125 L 5.046875 -44.203125 L 20.203125 -19.390625 L 35.359375 -44.203125 L 40.03125 -44.203125 Z M 22.359375 -15.28125 "/></g></g></g><g fill="#000000" fill-opacity="1"><g transform="translate(38.198487, 60.776275)"><g><path d="M 26.515625 0.375 C 22.140625 0.375 18.171875 -0.601562 14.609375 -2.5625 C 11.054688 -4.519531 8.28125 -7.203125 6.28125 -10.609375 C 4.28125 -14.015625 3.28125 -17.84375 3.28125 -22.09375 C 3.28125 -26.34375 4.28125 -30.171875 6.28125 -33.578125 C 8.28125 -36.992188 11.054688 -39.679688 14.609375 -41.640625 C 18.171875 -43.597656 22.140625 -44.578125 26.515625 -44.578125 C 30.890625 -44.578125 34.832031 -43.609375 38.34375 -41.671875 C 41.863281 -39.734375 44.632812 -37.046875 46.65625 -33.609375 C 48.675781 -30.179688 49.6875 -26.34375 49.6875 -22.09375 C 49.6875 -17.84375 48.675781 -14.003906 46.65625 -10.578125 C 44.632812 -7.148438 41.863281 -4.46875 38.34375 -2.53125 C 34.832031 -0.59375 30.890625 0.375 26.515625 0.375 Z M 26.515625 -3.78125 C 30.015625 -3.78125 33.171875 -4.570312 35.984375 -6.15625 C 38.804688 -7.738281 41.015625 -9.925781 42.609375 -12.71875 C 44.210938 -15.519531 45.015625 -18.644531 45.015625 -22.09375 C 45.015625 -25.550781 44.210938 -28.675781 42.609375 -31.46875 C 41.015625 -34.269531 38.804688 -36.457031 35.984375 -38.03125 C 33.171875 -39.613281 30.015625 -40.40625 26.515625 -40.40625 C 23.023438 -40.40625 19.859375 -39.613281 17.015625 -38.03125 C 14.171875 -36.457031 11.9375 -34.269531 10.3125 -31.46875 C 8.695312 -28.675781 7.890625 -25.550781 7.890625 -22.09375 C 7.890625 -18.644531 8.695312 -15.519531 10.3125 -12.71875 C 11.9375 -9.925781 14.171875 -7.738281 17.015625 -6.15625 C 19.859375 -4.570312 23.023438 -3.78125 26.515625 -3.78125 Z M 26.515625 -3.78125 "/></g></g></g><g fill="#000000" fill-opacity="1"><g transform="translate(91.17136, 60.776275)"><g><path d="M 19.390625 0.375 C 16.097656 0.375 12.945312 -0.148438 9.9375 -1.203125 C 6.9375 -2.253906 4.613281 -3.640625 2.96875 -5.359375 L 4.796875 -8.96875 C 6.398438 -7.363281 8.523438 -6.066406 11.171875 -5.078125 C 13.828125 -4.085938 16.566406 -3.59375 19.390625 -3.59375 C 23.335938 -3.59375 26.300781 -4.316406 28.28125 -5.765625 C 30.257812 -7.222656 31.25 -9.109375 31.25 -11.421875 C 31.25 -13.191406 30.710938 -14.601562 29.640625 -15.65625 C 28.566406 -16.707031 27.25 -17.515625 25.6875 -18.078125 C 24.132812 -18.648438 21.96875 -19.273438 19.1875 -19.953125 C 15.863281 -20.796875 13.210938 -21.601562 11.234375 -22.375 C 9.253906 -23.15625 7.5625 -24.34375 6.15625 -25.9375 C 4.75 -27.539062 4.046875 -29.710938 4.046875 -32.453125 C 4.046875 -34.679688 4.632812 -36.710938 5.8125 -38.546875 C 6.988281 -40.378906 8.796875 -41.84375 11.234375 -42.9375 C 13.679688 -44.03125 16.710938 -44.578125 20.328125 -44.578125 C 22.859375 -44.578125 25.332031 -44.226562 27.75 -43.53125 C 30.164062 -42.84375 32.257812 -41.882812 34.03125 -40.65625 L 32.453125 -36.9375 C 30.597656 -38.15625 28.617188 -39.066406 26.515625 -39.671875 C 24.410156 -40.285156 22.347656 -40.59375 20.328125 -40.59375 C 16.453125 -40.59375 13.535156 -39.84375 11.578125 -38.34375 C 9.628906 -36.851562 8.65625 -34.929688 8.65625 -32.578125 C 8.65625 -30.804688 9.191406 -29.382812 10.265625 -28.3125 C 11.335938 -27.238281 12.679688 -26.414062 14.296875 -25.84375 C 15.921875 -25.28125 18.101562 -24.664062 20.84375 -24 C 24.082031 -23.195312 26.703125 -22.40625 28.703125 -21.625 C 30.703125 -20.84375 32.394531 -19.660156 33.78125 -18.078125 C 35.164062 -16.503906 35.859375 -14.375 35.859375 -11.6875 C 35.859375 -9.445312 35.257812 -7.410156 34.0625 -5.578125 C 32.863281 -3.753906 31.019531 -2.304688 28.53125 -1.234375 C 26.050781 -0.160156 23.003906 0.375 19.390625 0.375 Z M 19.390625 0.375 "/></g></g></g><g fill="#000000" fill-opacity="1"><g transform="translate(130.001296, 60.776275)"><g><path d="M 26.515625 0.375 C 22.140625 0.375 18.171875 -0.601562 14.609375 -2.5625 C 11.054688 -4.519531 8.28125 -7.203125 6.28125 -10.609375 C 4.28125 -14.015625 3.28125 -17.84375 3.28125 -22.09375 C 3.28125 -26.34375 4.28125 -30.171875 6.28125 -33.578125 C 8.28125 -36.992188 11.054688 -39.679688 14.609375 -41.640625 C 18.171875 -43.597656 22.140625 -44.578125 26.515625 -44.578125 C 30.890625 -44.578125 34.832031 -43.609375 38.34375 -41.671875 C 41.863281 -39.734375 44.632812 -37.046875 46.65625 -33.609375 C 48.675781 -30.179688 49.6875 -26.34375 49.6875 -22.09375 C 49.6875 -17.84375 48.675781 -14.003906 46.65625 -10.578125 C 44.632812 -7.148438 41.863281 -4.46875 38.34375 -2.53125 C 34.832031 -0.59375 30.890625 0.375 26.515625 0.375 Z M 26.515625 -3.78125 C 30.015625 -3.78125 33.171875 -4.570312 35.984375 -6.15625 C 38.804688 -7.738281 41.015625 -9.925781 42.609375 -12.71875 C 44.210938 -15.519531 45.015625 -18.644531 45.015625 -22.09375 C 45.015625 -25.550781 44.210938 -28.675781 42.609375 -31.46875 C 41.015625 -34.269531 38.804688 -36.457031 35.984375 -38.03125 C 33.171875 -39.613281 30.015625 -40.40625 26.515625 -40.40625 C 23.023438 -40.40625 19.859375 -39.613281 17.015625 -38.03125 C 14.171875 -36.457031 11.9375 -34.269531 10.3125 -31.46875 C 8.695312 -28.675781 7.890625 -25.550781 7.890625 -22.09375 C 7.890625 -18.644531 8.695312 -15.519531 10.3125 -12.71875 C 11.9375 -9.925781 14.171875 -7.738281 17.015625 -6.15625 C 19.859375 -4.570312 23.023438 -3.78125 26.515625 -3.78125 Z M 26.515625 -3.78125 "/></g></g></g><g fill="#000000" fill-opacity="1"><g transform="translate(182.974169, 60.776275)"><g/></g></g><g fill="#000000" fill-opacity="1"><g transform="translate(199.533798, 60.776275)"><g><path d="M 5.234375 -44.203125 L 15.46875 -44.203125 L 15.46875 -8.328125 L 37.625 -8.328125 L 37.625 0 L 5.234375 0 Z M 5.234375 -44.203125 "/></g></g></g><g fill="#000000" fill-opacity="1"><g transform="translate(238.048053, 60.776275)"><g><path d="M 34.34375 -9.46875 L 13.828125 -9.46875 L 9.90625 0 L -0.5625 0 L 19.125 -44.203125 L 29.234375 -44.203125 L 49 0 L 38.265625 0 Z M 31.125 -17.234375 L 24.125 -34.15625 L 17.109375 -17.234375 Z M 31.125 -17.234375 "/></g></g></g><g fill="#000000" fill-opacity="1"><g transform="translate(286.411847, 60.776275)"><g><path d="M 37.6875 -22.984375 C 40.21875 -22.179688 42.195312 -20.84375 43.625 -18.96875 C 45.0625 -17.09375 45.78125 -14.789062 45.78125 -12.0625 C 45.78125 -8.1875 44.273438 -5.207031 41.265625 -3.125 C 38.253906 -1.039062 33.863281 0 28.09375 0 L 5.234375 0 L 5.234375 -44.203125 L 26.828125 -44.203125 C 32.222656 -44.203125 36.359375 -43.171875 39.234375 -41.109375 C 42.117188 -39.046875 43.5625 -36.242188 43.5625 -32.703125 C 43.5625 -30.554688 43.046875 -28.640625 42.015625 -26.953125 C 40.984375 -25.273438 39.539062 -23.953125 37.6875 -22.984375 Z M 15.40625 -36.5 L 15.40625 -26.078125 L 25.578125 -26.078125 C 28.097656 -26.078125 30.007812 -26.519531 31.3125 -27.40625 C 32.625 -28.289062 33.28125 -29.59375 33.28125 -31.3125 C 33.28125 -33.039062 32.625 -34.335938 31.3125 -35.203125 C 30.007812 -36.066406 28.097656 -36.5 25.578125 -36.5 Z M 27.34375 -7.703125 C 30.03125 -7.703125 32.054688 -8.144531 33.421875 -9.03125 C 34.796875 -9.914062 35.484375 -11.285156 35.484375 -13.140625 C 35.484375 -16.796875 32.769531 -18.625 27.34375 -18.625 L 15.40625 -18.625 L 15.40625 -7.703125 Z M 27.34375 -7.703125 "/></g></g></g><g fill="#000000" fill-opacity="1"><g transform="translate(334.7125, 60.776275)"><g><path d="M 19.765625 0.75 C 16.265625 0.75 12.882812 0.28125 9.625 -0.65625 C 6.363281 -1.601562 3.742188 -2.835938 1.765625 -4.359375 L 5.234375 -12.0625 C 7.128906 -10.664062 9.378906 -9.546875 11.984375 -8.703125 C 14.597656 -7.867188 17.210938 -7.453125 19.828125 -7.453125 C 22.734375 -7.453125 24.878906 -7.882812 26.265625 -8.75 C 27.648438 -9.613281 28.34375 -10.757812 28.34375 -12.1875 C 28.34375 -13.238281 27.929688 -14.109375 27.109375 -14.796875 C 26.296875 -15.492188 25.242188 -16.050781 23.953125 -16.46875 C 22.671875 -16.894531 20.9375 -17.363281 18.75 -17.875 C 15.382812 -18.664062 12.628906 -19.460938 10.484375 -20.265625 C 8.335938 -21.066406 6.492188 -22.347656 4.953125 -24.109375 C 3.421875 -25.878906 2.65625 -28.238281 2.65625 -31.1875 C 2.65625 -33.757812 3.347656 -36.085938 4.734375 -38.171875 C 6.117188 -40.253906 8.210938 -41.90625 11.015625 -43.125 C 13.816406 -44.34375 17.238281 -44.953125 21.28125 -44.953125 C 24.101562 -44.953125 26.859375 -44.613281 29.546875 -43.9375 C 32.242188 -43.269531 34.601562 -42.304688 36.625 -41.046875 L 33.46875 -33.28125 C 29.382812 -35.59375 25.300781 -36.75 21.21875 -36.75 C 18.351562 -36.75 16.234375 -36.285156 14.859375 -35.359375 C 13.492188 -34.429688 12.8125 -33.210938 12.8125 -31.703125 C 12.8125 -30.179688 13.597656 -29.050781 15.171875 -28.3125 C 16.753906 -27.582031 19.171875 -26.859375 22.421875 -26.140625 C 25.785156 -25.335938 28.539062 -24.535156 30.6875 -23.734375 C 32.832031 -22.941406 34.671875 -21.679688 36.203125 -19.953125 C 37.742188 -18.222656 38.515625 -15.882812 38.515625 -12.9375 C 38.515625 -10.414062 37.804688 -8.113281 36.390625 -6.03125 C 34.984375 -3.945312 32.867188 -2.296875 30.046875 -1.078125 C 27.234375 0.140625 23.804688 0.75 19.765625 0.75 Z M 19.765625 0.75 "/></g></g></g></g></g><path fill="#000000" d="M 170.902344 71.394531 C 162.429688 76.347656 146.28125 85.75 135.011719 92.28125 C 123.742188 98.8125 113.980469 104.625 113.335938 105.273438 C 112.117188 106.277344 112.042969 109.363281 112.042969 149.917969 C 112.042969 190.472656 112.117188 193.558594 113.335938 194.5625 C 113.980469 195.210938 118.71875 198.082031 123.886719 201.09375 C 138.027344 209.207031 163.507812 223.992188 175.636719 231.097656 C 181.597656 234.613281 186.90625 237.484375 187.410156 237.484375 C 188.269531 237.484375 199.539062 231.097656 221.503906 218.105469 C 226.671875 215.089844 238.011719 208.417969 246.839844 203.320312 L 262.777344 194.0625 L 262.777344 150.203125 C 262.777344 109.363281 262.703125 106.277344 261.554688 105.273438 C 258.972656 103.046875 188.558594 62.347656 187.339844 62.347656 C 186.765625 62.347656 179.371094 66.441406 170.902344 71.394531 Z M 221.71875 88.046875 L 254.953125 107.425781 L 249.710938 110.511719 C 246.839844 112.164062 241.890625 115.035156 238.730469 116.898438 C 235.574219 118.765625 223.65625 125.730469 212.171875 132.332031 C 200.761719 138.9375 190.640625 144.820312 189.707031 145.394531 C 188.773438 145.96875 187.625 146.328125 187.121094 146.183594 C 185.617188 145.828125 120.730469 108 120.65625 107.425781 C 120.65625 107.210938 125.105469 104.410156 130.5625 101.253906 C 135.945312 98.09375 150.875 89.335938 163.722656 81.871094 C 176.570312 74.335938 187.410156 68.308594 187.769531 68.449219 C 188.199219 68.523438 203.417969 77.351562 221.71875 88.046875 Z M 141.617188 126.304688 C 153.960938 133.480469 168.605469 142.023438 174.132812 145.253906 L 184.179688 151.136719 L 184.394531 190.328125 C 184.46875 211.933594 184.394531 229.589844 184.179688 229.589844 C 183.820312 229.589844 126.328125 196.214844 122.308594 193.628906 C 121.375 193.128906 120.65625 192.480469 120.65625 192.265625 C 120.65625 192.050781 125.898438 188.894531 132.355469 185.160156 C 163.652344 167 163.148438 167.359375 160.421875 164.703125 C 159.058594 163.269531 158.984375 163.269531 136.304688 176.617188 C 126.902344 182.074219 118.71875 186.738281 118.144531 186.953125 C 117.210938 187.3125 117.066406 183.007812 117.066406 149.917969 C 117.066406 117.472656 117.210938 112.523438 118.074219 112.808594 C 118.648438 113.023438 129.269531 119.125 141.617188 126.304688 Z M 257.75 149.988281 C 257.75 181.429688 257.609375 187.3125 256.746094 187.027344 C 256.246094 186.8125 251.003906 183.796875 245.117188 180.351562 C 239.234375 176.90625 229.613281 171.308594 223.65625 167.863281 C 217.773438 164.488281 208.441406 159.105469 203.058594 155.945312 C 197.601562 152.859375 193.152344 150.132812 193.152344 149.917969 C 193.152344 149.703125 198.894531 146.257812 205.929688 142.238281 C 212.890625 138.144531 227.175781 129.890625 237.652344 123.789062 C 248.132812 117.617188 256.890625 112.664062 257.25 112.59375 C 257.535156 112.59375 257.75 129.390625 257.75 149.988281 Z M 257.75 149.988281 " fill-opacity="1" fill-rule="nonzero"/></svg>